<svg xmlns:xlink="http://www.w3.org/1999/xlink" xmlns="http://www.w3.org/2000/svg" width="100" height="100" viewBox="0 0 100 100" fill="none">
<path d="M48.6584 2.98816C49.1782 1.83047 50.8218 1.83048 51.3416 2.98816L58.7602 19.5121C59.1163 20.3052 60.0789 20.618 60.8332 20.1856L76.5475 11.1781C77.6485 10.547 78.9782 11.5131 78.7182 12.7552L75.0075 30.4839C74.8294 31.3348 75.4244 32.1537 76.2887 32.2472L94.2963 34.1966C95.558 34.3332 96.0659 35.8964 95.1255 36.7485L81.7028 48.9102C81.0585 49.4939 81.0585 50.5061 81.7028 51.0898L95.1255 63.2515C96.0659 64.1036 95.558 65.6668 94.2963 65.8034L76.2887 67.7528C75.4244 67.8463 74.8294 68.6652 75.0075 69.5161L78.7182 87.2448C78.9782 88.4869 77.6485 89.453 76.5475 88.8219L60.8332 79.8144C60.0789 79.382 59.1163 79.6948 58.7602 80.4879L51.3416 97.0118C50.8218 98.1695 49.1782 98.1695 48.6584 97.0118L41.2398 80.4879C40.8837 79.6948 39.9211 79.382 39.1668 79.8144L23.4525 88.8219C22.3515 89.453 21.0218 88.4869 21.2818 87.2448L24.9925 69.5161C25.1706 68.6652 24.5756 67.8463 23.7113 67.7528L5.70366 65.8034C4.44201 65.6668 3.9341 64.1036 4.87452 63.2515L18.2972 51.0898C18.9415 50.5061 18.9415 49.4939 18.2972 48.9102L4.87451 36.7485C3.9341 35.8964 4.44202 34.3332 5.70366 34.1966L23.7113 32.2472C24.5756 32.1537 25.1706 31.3348 24.9925 30.4839L21.2818 12.7552C21.0218 11.5131 22.3515 10.547 23.4525 11.1781L39.1668 20.1856C39.9211 20.6179 40.8837 20.3052 41.2398 19.5121L48.6584 2.98816Z" fill="#FFBF2D"/>
<path fill-rule="evenodd" clip-rule="evenodd" d="M64.7113 49.1992C65.3234 49.1172 65.9179 48.9649 66.4802 48.7541C67.3207 48.4407 68.0968 47.9955 68.7851 47.4449C68.6328 49.6824 68.1144 51.8174 67.2914 53.7943L67.2036 54.0051C64.1724 61.0544 57.2198 66.0244 49.0957 66.1767C40.9715 66.0244 34.0189 61.0544 30.9877 54.0051L30.8999 53.7943C30.074 51.8174 29.5585 49.6824 29.4062 47.4449C30.0945 47.9955 30.8706 48.4407 31.7111 48.7541C32.2734 48.962 32.8679 49.1143 33.48 49.1992H33.4829C33.152 48.0805 32.9734 46.8944 32.9734 45.6672C32.5194 38.0644 40.4327 33.8237 40.4327 33.8237C40.6552 37.3147 41.7213 39.9505 42.5296 41.488C44.2985 40.1057 46.5272 39.2798 48.9463 39.2798C51.462 39.2798 53.7727 40.1731 55.5739 41.6579C56.391 40.1496 57.5273 37.4494 57.7586 33.8267C57.7586 33.8267 65.6719 38.0674 65.2179 45.6702C65.2179 46.8973 65.0393 48.0805 64.7084 49.1992H64.7113ZM50.0425 59.9151C49.4362 59.675 48.7597 59.6633 48.1476 59.8888C47.8255 60.0059 47.7669 60.4335 48.0451 60.6356L49.0994 61.3941L50.1508 60.6707C50.429 60.4774 50.3822 60.0499 50.0659 59.9239L50.0425 59.9151ZM39.3247 51.009C39.3247 51.009 43.4746 51.1115 46.0957 54.4268C46.251 54.6201 46.3769 54.8368 46.453 55.0711C46.6171 55.5719 46.6581 56.3773 45.5832 56.8722C45.3431 56.9835 45.1029 57.0626 44.8628 57.1212C43.1642 57.537 41.3982 56.8283 40.379 55.4079C39.6995 54.459 39.1402 53.0415 39.3247 51.009ZM52.1168 54.4268C54.7379 51.1115 58.8878 51.009 58.8878 51.009C59.0753 53.0415 58.513 54.459 57.8335 55.4079C56.8143 56.8283 55.0484 57.537 53.3497 57.1212C53.1096 57.0626 52.8694 56.9835 52.6293 56.8722C51.5545 56.3773 51.5955 55.5719 51.7595 55.0711C51.8356 54.8368 51.9615 54.6201 52.1168 54.4268Z" fill="#FFFDF1"/>
</svg>